<?xml version="1.0" standalone="no"?>
<svg xmlns:xlink="http://www.w3.org/1999/xlink" id="wave" style="transform:rotate(180deg); transition: 0.3s" viewBox="0 0 1440 210" version="1.1" xmlns="http://www.w3.org/2000/svg"><defs><linearGradient id="sw-gradient-0" x1="0" x2="0" y1="1" y2="0"><stop stop-color="rgba(216, 0, 50, 1)" offset="0%"/><stop stop-color="rgba(242.165, 43.278, 89.316, 1)" offset="100%"/></linearGradient></defs><path style="transform:translate(0, 0px); opacity:1" fill="url(#sw-gradient-0)" d="M0,0L288,126L576,189L864,189L1152,105L1440,21L1728,147L2016,189L2304,42L2592,21L2880,168L3168,189L3456,168L3744,126L4032,21L4320,63L4608,42L4896,105L5184,147L5472,63L5760,168L6048,21L6336,105L6624,126L6912,189L6912,210L6624,210L6336,210L6048,210L5760,210L5472,210L5184,210L4896,210L4608,210L4320,210L4032,210L3744,210L3456,210L3168,210L2880,210L2592,210L2304,210L2016,210L1728,210L1440,210L1152,210L864,210L576,210L288,210L0,210Z"/></svg>